<svg xmlns="http://www.w3.org/2000/svg" width="286" height="70" viewBox="0 0 286 70"><defs><linearGradient id="ie4va" x1="143" x2="143" y1="64" y2="6" gradientUnits="userSpaceOnUse"><stop offset="0" stop-color="#34ae22"/><stop offset="1" stop-color="#6ed258"/></linearGradient><filter id="ie4vb" width="200%" height="200%" x="-50%" y="-50%"><feGaussianBlur in="SourceGraphic" result="FeGaussianBlur1034Out" stdDeviation="0 0"/></filter><mask id="ie4vc"><path fill="#fff" d="M10 6h266a4 4 0 0 1 4 4v50a4 4 0 0 1-4 4H10a4 4 0 0 1-4-4V10a4 4 0 0 1 4-4z"/></mask><clipPath id="ie4vd"><path fill="#fff" d="M0 70V0h286v70zm6-60v50a4 4 0 0 0 4 4h266a4 4 0 0 0 4-4V10a4 4 0 0 0-4-4H10a4 4 0 0 0-4 4z"/></clipPath></defs><g><g><path fill="#636363" d="M10 6h266a4 4 0 0 1 4 4v50a4 4 0 0 1-4 4H10a4 4 0 0 1-4-4V10a4 4 0 0 1 4-4z"/><path fill="url(#ie4va)" d="M10 6h266a4 4 0 0 1 4 4v50a4 4 0 0 1-4 4H10a4 4 0 0 1-4-4V10a4 4 0 0 1 4-4z"/><path fill="#70f354" fill-opacity=".75" d="M6 65v-3.987A4 4 0 0 0 10 65h266a4 4 0 0 0 4-4v4zM6 5h274v6a4 4 0 0 0-4-4H10a4 4 0 0 0-4 3.987zm0 6v50.013-50.026V11z" filter="url(#ie4vb)" mask="url(&quot;#ie4vc&quot;)"/><path fill="none" stroke="#000" stroke-linecap="round" stroke-linejoin="round" stroke-miterlimit="50" stroke-opacity=".12" stroke-width="12" d="M10 6h266a4 4 0 0 1 4 4v50a4 4 0 0 1-4 4H10a4 4 0 0 1-4-4V10a4 4 0 0 1 4-4z" clip-path="url(&quot;#ie4vd&quot;)"/></g></g></svg>